<?xml version="1.0" encoding="UTF-8"?>
<!DOCTYPE svg PUBLIC "-//W3C//DTD SVG 1.1//EN" "http://www.w3.org/Graphics/SVG/1.1/DTD/svg11.dtd">
<svg xmlns="http://www.w3.org/2000/svg" version="1.1" width="500px" height="500px" style="shape-rendering:geometricPrecision; text-rendering:geometricPrecision; image-rendering:optimizeQuality; fill-rule:evenodd; clip-rule:evenodd" xmlns:xlink="http://www.w3.org/1999/xlink">
<g><path style="opacity:1" fill="#8c000a" d="M -0.5,-0.5 C 9.83333,-0.5 20.1667,-0.5 30.5,-0.5C 30.1667,166.167 29.8333,332.833 29.5,499.5C 19.5,499.5 9.5,499.5 -0.5,499.5C -0.5,332.833 -0.5,166.167 -0.5,-0.5 Z"/></g>
<g><path style="opacity:1" fill="#93000f" d="M 30.5,-0.5 C 42.5,-0.5 54.5,-0.5 66.5,-0.5C 65.1667,75.1667 65.1667,150.833 66.5,226.5C 56.175,229.122 50.5083,235.789 49.5,246.5C 50.3666,257.368 56.0333,264.368 66.5,267.5C 66.1667,344.833 65.8333,422.167 65.5,499.5C 53.5,499.5 41.5,499.5 29.5,499.5C 29.8333,332.833 30.1667,166.167 30.5,-0.5 Z"/></g>
<g><path style="opacity:1" fill="#990015" d="M 66.5,-0.5 C 77.1667,-0.5 87.8333,-0.5 98.5,-0.5C 97.4024,75.0488 97.4024,150.549 98.5,226C 97.5842,226.278 96.9175,226.778 96.5,227.5C 96.1712,240.677 96.5045,253.677 97.5,266.5C 97.5,344.167 97.5,421.833 97.5,499.5C 86.8333,499.5 76.1667,499.5 65.5,499.5C 65.8333,422.167 66.1667,344.833 66.5,267.5C 79.4647,266.702 86.798,259.868 88.5,247C 86.772,234.104 79.4386,227.271 66.5,226.5C 65.1667,150.833 65.1667,75.1667 66.5,-0.5 Z"/></g>
<g><path style="opacity:1" fill="#9f011a" d="M 98.5,-0.5 C 109.167,-0.5 119.833,-0.5 130.5,-0.5C 130.167,166.167 129.833,332.833 129.5,499.5C 118.833,499.5 108.167,499.5 97.5,499.5C 97.5,421.833 97.5,344.167 97.5,266.5C 99.8333,266.5 102.167,266.5 104.5,266.5C 104.5,261.167 104.5,255.833 104.5,250.5C 109.599,250.825 114.599,250.325 119.5,249C 126.09,242.301 126.09,235.634 119.5,229C 111.92,227.604 104.253,227.104 96.5,227.5C 96.9175,226.778 97.5842,226.278 98.5,226C 97.4024,150.549 97.4024,75.0488 98.5,-0.5 Z"/></g>
<g><path style="opacity:1" fill="#a5011e" d="M 130.5,-0.5 C 140.5,-0.5 150.5,-0.5 160.5,-0.5C 160.167,166.167 159.833,332.833 159.5,499.5C 149.5,499.5 139.5,499.5 129.5,499.5C 129.833,332.833 130.167,166.167 130.5,-0.5 Z"/></g>
<g><path style="opacity:1" fill="#ab021f" d="M 160.5,-0.5 C 169.833,-0.5 179.167,-0.5 188.5,-0.5C 188.167,81.5 187.833,163.5 187.5,245.5C 182.697,239.854 178.031,234.021 173.5,228C 170.854,227.503 168.187,227.336 165.5,227.5C 165.5,240.5 165.5,253.5 165.5,266.5C 168.167,266.5 170.833,266.5 173.5,266.5C 173.334,258.16 173.5,249.827 174,241.5C 179.664,248.174 184.831,255.174 189.5,262.5C 188.761,262.369 188.094,262.536 187.5,263C 187.736,341.785 187.736,420.618 187.5,499.5C 178.167,499.5 168.833,499.5 159.5,499.5C 159.833,332.833 160.167,166.167 160.5,-0.5 Z"/></g>
<g><path style="opacity:1" fill="#b20221" d="M 188.5,-0.5 C 198.5,-0.5 208.5,-0.5 218.5,-0.5C 218.167,75.6667 218.167,151.667 218.5,227.5C 212.005,230.828 209.505,236.162 211,243.5C 212.167,246 214,247.833 216.5,249C 220.787,250.488 225.12,251.822 229.5,253C 230.876,255.54 230.21,257.54 227.5,259C 222.522,260.605 218.855,259.105 216.5,254.5C 208.783,255.965 207.783,259.131 213.5,264C 215.925,265.213 218.259,266.379 220.5,267.5C 219.244,267.461 218.244,267.961 217.5,269C 218.598,345.785 218.598,422.618 217.5,499.5C 207.5,499.5 197.5,499.5 187.5,499.5C 187.736,420.618 187.736,341.785 187.5,263C 188.094,262.536 188.761,262.369 189.5,262.5C 190.364,263.688 191.364,264.855 192.5,266C 195.146,266.497 197.813,266.664 200.5,266.5C 200.5,253.5 200.5,240.5 200.5,227.5C 197.833,227.5 195.167,227.5 192.5,227.5C 192.666,235.84 192.5,244.173 192,252.5C 190.25,250.266 188.75,247.932 187.5,245.5C 187.833,163.5 188.167,81.5 188.5,-0.5 Z"/></g>
<g><path style="opacity:1" fill="#b80222" d="M 218.5,-0.5 C 228.5,-0.5 238.5,-0.5 248.5,-0.5C 247.931,78.0483 247.598,156.548 247.5,235C 248.044,235.717 248.711,236.217 249.5,236.5C 245.5,243.5 245.5,250.5 249.5,257.5C 248.711,257.783 248.044,258.283 247.5,259C 247.736,339.118 247.736,419.285 247.5,499.5C 237.5,499.5 227.5,499.5 217.5,499.5C 218.598,422.618 218.598,345.785 217.5,269C 218.244,267.961 219.244,267.461 220.5,267.5C 227.491,268.004 233.325,265.671 238,260.5C 240.73,254.704 239.563,249.87 234.5,246C 229.332,244.793 224.332,243.126 219.5,241C 217.896,236.32 219.729,234.153 225,234.5C 227.693,234.36 229.86,235.36 231.5,237.5C 238.227,235.698 238.894,232.864 233.5,229C 228.687,226.44 223.687,225.94 218.5,227.5C 218.167,151.667 218.167,75.6667 218.5,-0.5 Z"/></g>
<g><path style="opacity:1" fill="#be0223" d="M 248.5,-0.5 C 257.167,-0.5 265.833,-0.5 274.5,-0.5C 274.5,75.8333 274.5,152.167 274.5,228.5C 264.099,224.527 255.766,227.193 249.5,236.5C 248.711,236.217 248.044,235.717 247.5,235C 247.598,156.548 247.931,78.0483 248.5,-0.5 Z"/></g>
<g><path style="opacity:1" fill="#c40425" d="M 274.5,-0.5 C 283.167,-0.5 291.833,-0.5 300.5,-0.5C 300.403,80.0493 300.069,160.549 299.5,241C 305.157,241.499 310.824,241.666 316.5,241.5C 310.69,242.49 304.69,242.823 298.5,242.5C 298.5,237.5 298.5,232.5 298.5,227.5C 295.833,227.5 293.167,227.5 290.5,227.5C 290.5,240.5 290.5,253.5 290.5,266.5C 293.167,266.5 295.833,266.5 298.5,266.5C 298.5,260.833 298.5,255.167 298.5,249.5C 304.5,249.5 310.5,249.5 316.5,249.5C 316.5,255.167 316.5,260.833 316.5,266.5C 315.512,261.36 315.179,256.026 315.5,250.5C 310.156,250.334 304.823,250.501 299.5,251C 299.736,333.785 299.736,416.618 299.5,499.5C 290.833,499.5 282.167,499.5 273.5,499.5C 273.833,421.5 274.167,343.5 274.5,265.5C 277.688,263.497 279.855,260.83 281,257.5C 279.414,256.624 277.914,255.624 276.5,254.5C 270.489,259.302 264.322,259.635 258,255.5C 255.626,251.106 254.959,246.44 256,241.5C 259.636,235.823 264.803,233.99 271.5,236C 272.579,236.956 273.745,237.789 275,238.5C 276.141,236.391 277.641,234.558 279.5,233C 277.937,231.264 276.27,229.764 274.5,228.5C 274.5,152.167 274.5,75.8333 274.5,-0.5 Z"/></g>
<g><path style="opacity:1" fill="#cb0326" d="M 300.5,-0.5 C 311.833,-0.5 323.167,-0.5 334.5,-0.5C 334.403,78.716 334.069,157.883 333.5,237C 334.094,237.464 334.761,237.631 335.5,237.5C 332.885,243.807 332.885,250.14 335.5,256.5C 334.761,256.369 334.094,256.536 333.5,257C 334.598,337.785 334.598,418.618 333.5,499.5C 322.167,499.5 310.833,499.5 299.5,499.5C 299.736,416.618 299.736,333.785 299.5,251C 304.823,250.501 310.156,250.334 315.5,250.5C 315.179,256.026 315.512,261.36 316.5,266.5C 319.167,266.5 321.833,266.5 324.5,266.5C 324.5,253.5 324.5,240.5 324.5,227.5C 321.833,227.5 319.167,227.5 316.5,227.5C 316.5,232.167 316.5,236.833 316.5,241.5C 310.824,241.666 305.157,241.499 299.5,241C 300.069,160.549 300.403,80.0493 300.5,-0.5 Z"/></g>
<g><path style="opacity:1" fill="#d10227" d="M 334.5,-0.5 C 343.833,-0.5 353.167,-0.5 362.5,-0.5C 362.071,76.048 362.071,152.715 362.5,229.5C 350.974,223.768 341.974,226.434 335.5,237.5C 334.761,237.631 334.094,237.464 333.5,237C 334.069,157.883 334.403,78.716 334.5,-0.5 Z"/></g>
<g><path style="opacity:1" fill="#d70328" d="M 362.5,-0.5 C 371.167,-0.5 379.833,-0.5 388.5,-0.5C 387.931,75.3816 387.598,151.215 387.5,227C 388.044,227.717 388.711,228.217 389.5,228.5C 379.209,235.987 376.709,245.653 382,257.5C 384.028,260.692 386.528,263.359 389.5,265.5C 388.711,265.783 388.044,266.283 387.5,267C 387.736,344.451 387.736,421.951 387.5,499.5C 378.833,499.5 370.167,499.5 361.5,499.5C 362.263,421.286 362.597,342.953 362.5,264.5C 371.566,256.898 373.732,247.564 369,236.5C 367.306,233.642 365.139,231.309 362.5,229.5C 362.071,152.715 362.071,76.048 362.5,-0.5 Z"/></g>
<g><path style="opacity:1" fill="#dd0329" d="M 388.5,-0.5 C 397.167,-0.5 405.833,-0.5 414.5,-0.5C 413.931,76.715 413.598,153.882 413.5,231C 414.5,232 415.5,233 416.5,234C 416.116,234.951 415.783,235.784 415.5,236.5C 408.903,227.348 400.237,224.681 389.5,228.5C 388.711,228.217 388.044,227.717 387.5,227C 387.598,151.215 387.931,75.3816 388.5,-0.5 Z"/></g>
<g><path style="opacity:1" fill="#e3042a" d="M 414.5,-0.5 C 424.5,-0.5 434.5,-0.5 444.5,-0.5C 443.167,85.8333 443.167,172.167 444.5,258.5C 441.167,258.5 437.833,258.5 434.5,258.5C 434.5,248.167 434.5,237.833 434.5,227.5C 431.833,227.5 429.167,227.5 426.5,227.5C 426.5,240.5 426.5,253.5 426.5,266.5C 432.167,266.5 437.833,266.5 443.5,266.5C 443.5,344.167 443.5,421.833 443.5,499.5C 433.5,499.5 423.5,499.5 413.5,499.5C 414.598,421.285 414.598,343.118 413.5,265C 414.5,264.667 415.5,264.333 416.5,264C 416.285,261.441 416.285,258.607 416.5,255.5C 418.098,249.025 417.765,242.692 415.5,236.5C 415.783,235.784 416.116,234.951 416.5,234C 415.5,233 414.5,232 413.5,231C 413.598,153.882 413.931,76.715 414.5,-0.5 Z"/></g>
<g><path style="opacity:1" fill="#ea032c" d="M 444.5,-0.5 C 455.167,-0.5 465.833,-0.5 476.5,-0.5C 476.167,166.167 475.833,332.833 475.5,499.5C 464.833,499.5 454.167,499.5 443.5,499.5C 443.5,421.833 443.5,344.167 443.5,266.5C 445.833,266.5 448.167,266.5 450.5,266.5C 451.473,264.052 451.806,261.385 451.5,258.5C 449.167,258.5 446.833,258.5 444.5,258.5C 443.167,172.167 443.167,85.8333 444.5,-0.5 Z"/></g>
<g><path style="opacity:1" fill="#f0032d" d="M 476.5,-0.5 C 484.167,-0.5 491.833,-0.5 499.5,-0.5C 499.5,166.167 499.5,332.833 499.5,499.5C 491.5,499.5 483.5,499.5 475.5,499.5C 475.833,332.833 476.167,166.167 476.5,-0.5 Z"/></g>
<g><path style="opacity:1" fill="#fbf4f5" d="M 66.5,226.5 C 79.4386,227.271 86.772,234.104 88.5,247C 86.798,259.868 79.4647,266.702 66.5,267.5C 56.0333,264.368 50.3666,257.368 49.5,246.5C 50.5083,235.789 56.175,229.122 66.5,226.5 Z"/></g>
<g><path style="opacity:1" fill="#fdfcfc" d="M 96.5,227.5 C 104.253,227.104 111.92,227.604 119.5,229C 126.09,235.634 126.09,242.301 119.5,249C 114.599,250.325 109.599,250.825 104.5,250.5C 104.5,255.833 104.5,261.167 104.5,266.5C 102.167,266.5 99.8333,266.5 97.5,266.5C 96.5045,253.677 96.1712,240.677 96.5,227.5 Z"/></g>
<g><path style="opacity:1" fill="#fbf3f4" d="M 131.5,227.5 C 139.833,227.5 148.167,227.5 156.5,227.5C 156.5,229.833 156.5,232.167 156.5,234.5C 151.167,234.5 145.833,234.5 140.5,234.5C 140.5,236.833 140.5,239.167 140.5,241.5C 145.167,241.5 149.833,241.5 154.5,241.5C 154.5,244.167 154.5,246.833 154.5,249.5C 149.833,249.5 145.167,249.5 140.5,249.5C 140.5,252.5 140.5,255.5 140.5,258.5C 145.833,258.5 151.167,258.5 156.5,258.5C 156.5,261.167 156.5,263.833 156.5,266.5C 148.167,266.5 139.833,266.5 131.5,266.5C 131.5,253.5 131.5,240.5 131.5,227.5 Z"/></g>
<g><path style="opacity:1" fill="#fefbfc" d="M 187.5,245.5 C 188.75,247.932 190.25,250.266 192,252.5C 192.5,244.173 192.666,235.84 192.5,227.5C 195.167,227.5 197.833,227.5 200.5,227.5C 200.5,240.5 200.5,253.5 200.5,266.5C 197.813,266.664 195.146,266.497 192.5,266C 191.364,264.855 190.364,263.688 189.5,262.5C 184.831,255.174 179.664,248.174 174,241.5C 173.5,249.827 173.334,258.16 173.5,266.5C 170.833,266.5 168.167,266.5 165.5,266.5C 165.5,253.5 165.5,240.5 165.5,227.5C 168.187,227.336 170.854,227.503 173.5,228C 178.031,234.021 182.697,239.854 187.5,245.5 Z"/></g>
<g><path style="opacity:1" fill="#fdf6f7" d="M 220.5,267.5 C 218.259,266.379 215.925,265.213 213.5,264C 207.783,259.131 208.783,255.965 216.5,254.5C 218.855,259.105 222.522,260.605 227.5,259C 230.21,257.54 230.876,255.54 229.5,253C 225.12,251.822 220.787,250.488 216.5,249C 214,247.833 212.167,246 211,243.5C 209.505,236.162 212.005,230.828 218.5,227.5C 223.687,225.94 228.687,226.44 233.5,229C 238.894,232.864 238.227,235.698 231.5,237.5C 229.86,235.36 227.693,234.36 225,234.5C 219.729,234.153 217.896,236.32 219.5,241C 224.332,243.126 229.332,244.793 234.5,246C 239.563,249.87 240.73,254.704 238,260.5C 233.325,265.671 227.491,268.004 220.5,267.5 Z"/></g>
<g><path style="opacity:1" fill="#fdf4f5" d="M 274.5,228.5 C 276.27,229.764 277.937,231.264 279.5,233C 277.641,234.558 276.141,236.391 275,238.5C 273.745,237.789 272.579,236.956 271.5,236C 264.803,233.99 259.636,235.823 256,241.5C 254.959,246.44 255.626,251.106 258,255.5C 264.322,259.635 270.489,259.302 276.5,254.5C 277.914,255.624 279.414,256.624 281,257.5C 279.855,260.83 277.688,263.497 274.5,265.5C 264.067,269.453 255.734,266.786 249.5,257.5C 245.5,250.5 245.5,243.5 249.5,236.5C 255.766,227.193 264.099,224.527 274.5,228.5 Z"/></g>
<g><path style="opacity:1" fill="#fefefe" d="M 316.5,241.5 C 316.5,236.833 316.5,232.167 316.5,227.5C 319.167,227.5 321.833,227.5 324.5,227.5C 324.5,240.5 324.5,253.5 324.5,266.5C 321.833,266.5 319.167,266.5 316.5,266.5C 316.5,260.833 316.5,255.167 316.5,249.5C 310.5,249.5 304.5,249.5 298.5,249.5C 298.5,255.167 298.5,260.833 298.5,266.5C 295.833,266.5 293.167,266.5 290.5,266.5C 290.5,253.5 290.5,240.5 290.5,227.5C 293.167,227.5 295.833,227.5 298.5,227.5C 298.5,232.5 298.5,237.5 298.5,242.5C 304.69,242.823 310.69,242.49 316.5,241.5 Z"/></g>
<g><path style="opacity:1" fill="#fef6f7" d="M 362.5,229.5 C 365.139,231.309 367.306,233.642 369,236.5C 373.732,247.564 371.566,256.898 362.5,264.5C 351.06,269.908 342.06,267.241 335.5,256.5C 332.885,250.14 332.885,243.807 335.5,237.5C 341.974,226.434 350.974,223.768 362.5,229.5 Z"/></g>
<g><path style="opacity:1" fill="#fef7f8" d="M 415.5,236.5 C 417.765,242.692 418.098,249.025 416.5,255.5C 410.215,265.931 401.215,269.264 389.5,265.5C 386.528,263.359 384.028,260.692 382,257.5C 376.709,245.653 379.209,235.987 389.5,228.5C 400.237,224.681 408.903,227.348 415.5,236.5 Z"/></g>
<g><path style="opacity:1" fill="#fefffe" d="M 434.5,258.5 C 439.64,259.488 444.974,259.821 450.5,259.5C 450.5,261.833 450.5,264.167 450.5,266.5C 448.167,266.5 445.833,266.5 443.5,266.5C 437.833,266.5 432.167,266.5 426.5,266.5C 426.5,253.5 426.5,240.5 426.5,227.5C 429.167,227.5 431.833,227.5 434.5,227.5C 434.5,237.833 434.5,248.167 434.5,258.5 Z"/></g>
<g><path style="opacity:1" fill="#980716" d="M 64.5,235.5 C 76.4102,234.289 81.2435,239.623 79,251.5C 74.3646,259.078 68.3646,260.411 61,255.5C 58.6261,251.106 57.9595,246.44 59,241.5C 60.3597,238.977 62.193,236.977 64.5,235.5 Z"/></g>
<g><path style="opacity:1" fill="#cb7884" d="M 113.5,235.5 C 110.833,235.5 108.167,235.5 105.5,235.5C 105.5,237.833 105.5,240.167 105.5,242.5C 108.167,242.5 110.833,242.5 113.5,242.5C 110.713,243.477 107.713,243.81 104.5,243.5C 104.5,240.5 104.5,237.5 104.5,234.5C 107.713,234.19 110.713,234.523 113.5,235.5 Z"/></g>
<g><path style="opacity:1" fill="#a00b1d" d="M 113.5,235.5 C 117.5,237.833 117.5,240.167 113.5,242.5C 110.833,242.5 108.167,242.5 105.5,242.5C 105.5,240.167 105.5,237.833 105.5,235.5C 108.167,235.5 110.833,235.5 113.5,235.5 Z"/></g>
<g><path style="opacity:1" fill="#d30c2a" d="M 347.5,235.5 C 360.129,234.624 364.963,240.291 362,252.5C 359.081,258.025 354.581,259.858 348.5,258C 342.652,254.495 340.485,249.328 342,242.5C 343.666,240.004 345.5,237.671 347.5,235.5 Z"/></g>
<g><path style="opacity:1" fill="#dd0f2d" d="M 393.5,235.5 C 406.626,234.794 411.459,240.794 408,253.5C 404.562,258.081 400.062,259.581 394.5,258C 385.635,250.947 385.302,243.447 393.5,235.5 Z"/></g>
<g><path style="opacity:1" fill="#d10227" d="M 335.5,256.5 C 342.06,267.241 351.06,269.908 362.5,264.5C 362.597,342.953 362.263,421.286 361.5,499.5C 352.167,499.5 342.833,499.5 333.5,499.5C 334.598,418.618 334.598,337.785 333.5,257C 334.094,256.536 334.761,256.369 335.5,256.5 Z"/></g>
<g><path style="opacity:1" fill="#be0223" d="M 249.5,257.5 C 255.734,266.786 264.067,269.453 274.5,265.5C 274.167,343.5 273.833,421.5 273.5,499.5C 264.833,499.5 256.167,499.5 247.5,499.5C 247.736,419.285 247.736,339.118 247.5,259C 248.044,258.283 248.711,257.783 249.5,257.5 Z"/></g>
<g><path style="opacity:1" fill="#f4889a" d="M 434.5,258.5 C 437.833,258.5 441.167,258.5 444.5,258.5C 446.833,258.5 449.167,258.5 451.5,258.5C 451.806,261.385 451.473,264.052 450.5,266.5C 450.5,264.167 450.5,261.833 450.5,259.5C 444.974,259.821 439.64,259.488 434.5,258.5 Z"/></g>
<g><path style="opacity:1" fill="#dd0329" d="M 416.5,255.5 C 416.285,258.607 416.285,261.441 416.5,264C 415.5,264.333 414.5,264.667 413.5,265C 414.598,343.118 414.598,421.285 413.5,499.5C 404.833,499.5 396.167,499.5 387.5,499.5C 387.736,421.951 387.736,344.451 387.5,267C 388.044,266.283 388.711,265.783 389.5,265.5C 401.215,269.264 410.215,265.931 416.5,255.5 Z"/></g>
</svg>